<svg fill="none" height="256" viewBox="0 0 256 256" width="256" xmlns="http://www.w3.org/2000/svg"><path d="m134.154 6c21.614.00001 39.219.94724 53.443 3.52539 14.229 2.57931 25.371 6.84071 33.809 13.68751 17.032 13.8194 21.594 36.9231 21.594 71.8584v4h-81.93l-.354-3.6074c-.904-9.1806-2.638-13.2667-5.616-15.5244-3.245-2.4595-8.989-3.6094-20.49-3.6094-17.032 0-25.523 2.6095-30.358 9.0801-2.517 3.3689-4.3423 8.1586-5.5059 15.1178-1.1629 6.955-1.6191 15.774-1.6191 26.972 0 11.193.4851 19.998 1.7128 26.935 1.2272 6.933 3.1482 11.705 5.8042 15.071 5.16 6.539 14.256 9.164 32.245 9.164 5.517 0 9.786-.21 13.124-.712 3.346-.503 5.498-1.264 6.951-2.189 2.547-1.623 3.999-4.438 4.661-11.578l.337-3.63h81.122l-.085 4.083c-.684 33.091-5.644 55.009-22.579 68.096-8.37 6.468-19.316 10.494-33.232 12.93-13.912 2.436-31.081 3.33-52.123 3.33-48.1855 0-79.356-5.133-98.0953-23.803-18.7438-18.675-23.9697-49.814-23.9697-98.118 0-47.876 5.1098-78.805 23.6787-97.3759 18.569-18.5707 49.5167-23.7031 97.4753-23.7031z" fill="#000" stroke="#fff" stroke-width="8"/></svg>
