<svg fill="none" height="256" viewBox="0 0 256 256" width="256" xmlns="http://www.w3.org/2000/svg"><g fill="#000"><path d="m172 10h24.2c15.681 0 23.522 0 29.512 3.0518 5.268 2.6845 9.552 6.9679 12.236 12.2365 3.052 5.9895 3.052 13.8302 3.052 29.5117v28.2h-69z"/><path d="m194 139h25v25h-25z"/><rect height="73" rx="28" width="69" x="172" y="172"/><rect height="73" rx="28" width="70" x="93" y="10"/><path d="m93 91h25.2c15.681 0 23.522 0 29.512 3.0518 5.268 2.6845 9.552 6.9682 12.236 12.2362 3.052 5.99 3.052 13.831 3.052 29.512v28.2h-70z"/><path d="m93 172h25.2c15.681 0 23.522 0 29.512 3.052 5.268 2.684 9.552 6.968 12.236 12.236 3.052 5.99 3.052 13.831 3.052 29.512v28.2h-70z"/><rect height="73" rx="28" width="69" x="15" y="10"/><path d="m15 125.5c0-6.04 0-9.06.4641-11.577 2.1053-11.419 11.0401-20.3536 22.459-22.4589 2.5173-.4641 5.5371-.4641 11.5769-.4641 6.0398 0 9.0596 0 11.5769.4641 11.4189 2.1053 20.3537 11.0399 22.459 22.4589.4641 2.517.4641 5.537.4641 11.577v38.5h-32.5c-7.9026 0-11.8538 0-15.1128-.792-10.1763-2.473-18.1218-10.419-20.5951-20.595-.7921-3.259-.7921-7.21-.7921-15.113z"/><rect height="73" rx="28" width="69" x="15" y="172"/></g></svg>
